<?xml version="1.0" encoding="UTF-8" standalone="no"?>
<!DOCTYPE svg PUBLIC "-//W3C//DTD SVG 1.1//EN"
 "http://www.w3.org/Graphics/SVG/1.1/DTD/svg11.dtd">
<!-- Generated by graphviz version 2.40.1 (20161225.0304)
 -->
<!-- Title: G Pages: 1 -->
<svg width="290pt" height="268pt"
 viewBox="0.00 0.00 289.89 268.00" xmlns="http://www.w3.org/2000/svg" xmlns:xlink="http://www.w3.org/1999/xlink">
<g id="graph0" class="graph" transform="scale(1 1) rotate(0) translate(4 264)">
<title>G</title>
<polygon fill="#ffffff" stroke="transparent" points="-4,4 -4,-264 285.8927,-264 285.8927,4 -4,4"/>
<g id="clust1" class="cluster">
<title>cluster_Global</title>
<path fill="none" stroke="#c0c0c0" d="M149.8927,-8C149.8927,-8 261.8927,-8 261.8927,-8 267.8927,-8 273.8927,-14 273.8927,-20 273.8927,-20 273.8927,-240 273.8927,-240 273.8927,-246 267.8927,-252 261.8927,-252 261.8927,-252 149.8927,-252 149.8927,-252 143.8927,-252 137.8927,-246 137.8927,-240 137.8927,-240 137.8927,-20 137.8927,-20 137.8927,-14 143.8927,-8 149.8927,-8"/>
<text text-anchor="middle" x="205.8927" y="-239.2" font-family="Times,serif" font-size="11.00" fill="#c0c0c0">Global</text>
</g>
<g id="clust2" class="cluster">
<title>cluster_\Fire</title>
<path fill="none" stroke="#c0c0c0" d="M157.8927,-16C157.8927,-16 253.8927,-16 253.8927,-16 259.8927,-16 265.8927,-22 265.8927,-28 265.8927,-28 265.8927,-212 265.8927,-212 265.8927,-218 259.8927,-224 253.8927,-224 253.8927,-224 157.8927,-224 157.8927,-224 151.8927,-224 145.8927,-218 145.8927,-212 145.8927,-212 145.8927,-28 145.8927,-28 145.8927,-22 151.8927,-16 157.8927,-16"/>
<text text-anchor="middle" x="205.8927" y="-211.2" font-family="Times,serif" font-size="11.00" fill="#c0c0c0">Fire</text>
</g>
<g id="clust3" class="cluster">
<title>cluster_\Fire\Test</title>
<path fill="none" stroke="#c0c0c0" d="M167.8927,-70C167.8927,-70 243.8927,-70 243.8927,-70 249.8927,-70 255.8927,-76 255.8927,-82 255.8927,-82 255.8927,-184 255.8927,-184 255.8927,-190 249.8927,-196 243.8927,-196 243.8927,-196 167.8927,-196 167.8927,-196 161.8927,-196 155.8927,-190 155.8927,-184 155.8927,-184 155.8927,-82 155.8927,-82 155.8927,-76 161.8927,-70 167.8927,-70"/>
<text text-anchor="middle" x="205.8927" y="-183.2" font-family="Times,serif" font-size="11.00" fill="#c0c0c0">Test</text>
</g>
<!-- \\Fire\\Test\\TestCase -->
<g id="node1" class="node">
<title>\\Fire\\Test\\TestCase</title>
<polygon fill="none" stroke="#000000" points="247.8927,-168 163.8927,-168 163.8927,-132 247.8927,-132 247.8927,-168"/>
<text text-anchor="start" x="171.8927" y="-153.2" font-family="Courier,monospace" font-size="11.00" fill="#000000">«abstract»</text>
<text text-anchor="start" x="178.3927" y="-141.2" font-family="Courier,monospace" font-size="11.00" fill="#000000">TestCase</text>
</g>
<!-- \\Fire\\Test\\Suite -->
<g id="node2" class="node">
<title>\\Fire\\Test\\Suite</title>
<polygon fill="none" stroke="#000000" points="232.8927,-114 178.8927,-114 178.8927,-78 232.8927,-78 232.8927,-114"/>
<text text-anchor="middle" x="205.8927" y="-93.2" font-family="Courier,monospace" font-size="11.00" fill="#000000">Suite</text>
</g>
<!-- \\Fire\\TestException -->
<g id="node3" class="node">
<title>\\Fire\\TestException</title>
<polygon fill="none" stroke="#000000" points="257.8927,-60 153.8927,-60 153.8927,-24 257.8927,-24 257.8927,-60"/>
<text text-anchor="middle" x="205.8927" y="-39.2" font-family="Courier,monospace" font-size="11.00" fill="#000000">TestException</text>
</g>
<!-- \\Exception -->
<g id="node4" class="node">
<title>\\Exception</title>
<ellipse fill="none" stroke="#000000" cx="40.9464" cy="-42" rx="40.8928" ry="18"/>
<text text-anchor="middle" x="40.9464" y="-38.3" font-family="Times,serif" font-size="14.00" fill="#c0c0c0">xception</text>
</g>
<!-- \\Fire\\TestException&#45;&gt;\\Exception -->
<g id="edge1" class="edge">
<title>\\Fire\\TestException&#45;&gt;\\Exception</title>
<path fill="none" stroke="#000000" d="M153.7027,-42C134.1016,-42 111.8503,-42 92.3237,-42"/>
<polygon fill="none" stroke="#000000" points="92.0908,-38.5001 82.0907,-42 92.0907,-45.5001 92.0908,-38.5001"/>
</g>
</g>
</svg>
